<svg xmlns="http://www.w3.org/2000/svg" xmlns:xlink="http://www.w3.org/1999/xlink" version="1.1" x="0px" y="0px" viewBox="0 0 100 125" enable-background="new 0 0 100 100" xml:space="preserve"><g><path d="M92.159,35.038c-3.332,0.675-7.033,1.186-10.115,2.648c-1.246,0.591-1.863,2.997,0.043,3.205   c1.363,0.148,2.767,0.129,4.178,0.022c-1.109,0.775-2.15,1.734-3.186,2.598c-2.246,1.872-4.426,3.83-6.634,5.748   c-3.347,2.907-6.667,5.851-10.034,8.736c-0.429-5.703-0.936-11.403-1.394-17.103c-0.156-1.936-2.328-2.418-3.698-1.43   c-7.934,5.725-15.944,11.339-24.053,16.812c-1.178-3.768-2.119-7.597-2.796-11.496c-0.225-1.293-1.607-2.643-3.02-1.824   C24.171,47.172,16.882,51.374,9.608,55.6c0.342-4.606,0.664-9.212,0.744-13.832c0.038-2.21-3.35-1.764-3.616,0.183   C5.952,47.686,5.515,53.46,5.012,59.226c-0.175,2.011,1.541,3.197,3.316,2.189c7.43-4.22,14.839-8.478,22.255-12.721   c0.835,4.156,1.919,8.254,3.271,12.278c0.539,1.604,2.343,1.638,3.521,0.851c7.872-5.264,15.668-10.649,23.36-16.174   c0.465,5.785,0.908,11.574,1.474,17.348c0.165,1.681,2.234,2.7,3.568,1.499c4.158-3.744,8.452-7.343,12.689-10.997   c2.124-1.832,4.262-3.648,6.373-5.496c0.937-0.82,1.847-1.669,2.761-2.514c0.481-0.445,0.922-0.908,1.345-1.382   c-0.132,2.285,0.021,4.437,1.653,6.181c0.704,0.752,2.077,0.391,2.511-0.471c0.938-1.863,0.814-3.48,0.876-5.534   c0.062-2.037,0.391-4.04,0.913-6.008C95.374,36.478,94.139,34.637,92.159,35.038z"/></g><text x="0" y="115" fill="#000000" font-size="5px" font-weight="bold" font-family="'Helvetica Neue', Helvetica, Arial-Unicode, Arial, Sans-serif">Created by James Smith</text><text x="0" y="120" fill="#000000" font-size="5px" font-weight="bold" font-family="'Helvetica Neue', Helvetica, Arial-Unicode, Arial, Sans-serif">from the Noun Project</text></svg>