<svg xmlns="http://www.w3.org/2000/svg" xmlns:xlink="http://www.w3.org/1999/xlink" version="1.1" x="0px" y="0px" viewBox="0 0 100 125" enable-background="new 0 0 100 100" xml:space="preserve"><path d="M80.624,48.338c0.427-0.425,1.114-0.425,1.539,0c0.425,0.425,0.425,1.114,0,1.538c-0.425,0.425-1.112,0.425-1.539,0  C80.201,49.452,80.199,48.763,80.624,48.338z M74.895,49.961c0.424,0.424,1.113,0.424,1.536,0c0.427-0.425,0.427-1.113,0.002-1.538  s-1.114-0.425-1.538-0.001C74.47,48.848,74.47,49.536,74.895,49.961z M69.765,49.779c0.424,0.424,1.112,0.424,1.537-0.001  c0.424-0.425,0.424-1.113,0-1.538c-0.425-0.425-1.113-0.425-1.537,0C69.339,48.666,69.339,49.354,69.765,49.779z M64.677,49.762  c0.423,0.424,1.112,0.424,1.537-0.001c0.423-0.424,0.423-1.113,0-1.538c-0.425-0.425-1.114-0.425-1.537,0  C64.25,48.648,64.25,49.337,64.677,49.762z M59.513,49.895c0.425,0.425,1.112,0.425,1.537,0s0.425-1.114,0-1.539  c-0.425-0.424-1.112-0.424-1.537,0C59.086,48.781,59.088,49.47,59.513,49.895z M54.249,49.829c0.423,0.424,1.113,0.425,1.537,0  c0.425-0.425,0.425-1.114,0.001-1.538c-0.425-0.424-1.115-0.424-1.538,0C53.824,48.716,53.824,49.404,54.249,49.829z M49.114,49.902  c0.425,0.425,1.114,0.425,1.537,0c0.426-0.425,0.426-1.113,0.001-1.537c-0.424-0.425-1.113-0.425-1.538,0  C48.689,48.79,48.691,49.478,49.114,49.902z M43.942,49.817c0.425,0.425,1.112,0.425,1.537,0.001c0.425-0.425,0.425-1.114,0-1.539  s-1.114-0.425-1.537,0C43.516,48.705,43.516,49.393,43.942,49.817z M38.776,49.861c0.427,0.425,1.114,0.425,1.539,0  s0.425-1.113,0-1.538c-0.424-0.425-1.112-0.425-1.539,0C38.354,48.748,38.354,49.438,38.776,49.861z M33.745,49.796  c0.425,0.425,1.112,0.425,1.538,0c0.425-0.424,0.425-1.113,0-1.538s-1.113-0.425-1.538,0S33.32,49.372,33.745,49.796z   M28.547,49.829c0.425,0.425,1.114,0.425,1.54,0c0.424-0.424,0.424-1.113,0-1.538c-0.426-0.424-1.115-0.424-1.54,0  C28.124,48.715,28.124,49.405,28.547,49.829z M23.389,49.824c0.425,0.424,1.113,0.424,1.538,0c0.425-0.425,0.425-1.114,0-1.539  c-0.425-0.424-1.113-0.424-1.538,0C22.964,48.71,22.964,49.399,23.389,49.824z M18.264,49.808c0.425,0.424,1.113,0.424,1.537,0  c0.426-0.425,0.426-1.114,0-1.539c-0.424-0.424-1.112-0.424-1.537,0S17.84,49.383,18.264,49.808z M13.337,49.856  c0.425,0.425,1.113,0.425,1.537,0c0.425-0.425,0.425-1.114,0-1.538c-0.424-0.425-1.112-0.425-1.537,0  C12.912,48.743,12.912,49.432,13.337,49.856z"/><g><g><path d="M78.396,56.529l-1.042,1.08c-0.384,0.396-0.372,1.029,0.024,1.413c0.398,0.385,1.03,0.373,1.414-0.024l1.042-1.079    c0.384-0.396,0.373-1.029-0.024-1.413C79.413,56.121,78.778,56.133,78.396,56.529z"/></g><g><path d="M83.06,51.7l-2.332,2.415c-0.385,0.396-0.373,1.03,0.023,1.414c0.398,0.384,1.031,0.372,1.416-0.024l2.33-2.415    c0.385-0.398,0.373-1.031-0.023-1.414S83.442,51.304,83.06,51.7z"/></g><g><path d="M85.354,47.165c-0.385,0.397-0.373,1.029,0.023,1.413l0.361,0.348l-0.348,0.359c-0.384,0.397-0.373,1.031,0.024,1.415    c0.397,0.383,1.03,0.372,1.414-0.025l1.042-1.079c0.383-0.396,0.373-1.03-0.024-1.414l-1.079-1.041    C86.371,46.756,85.737,46.768,85.354,47.165z"/></g><g><path d="M80.565,42.541c-0.384,0.396-0.373,1.029,0.024,1.413l2.395,2.313c0.397,0.383,1.03,0.372,1.414-0.025    s0.372-1.03-0.024-1.413l-2.395-2.313C81.582,42.131,80.948,42.143,80.565,42.541z"/></g><g><path d="M77.092,39.186c-0.384,0.396-0.372,1.029,0.024,1.414l1.08,1.042c0.396,0.384,1.029,0.373,1.413-0.025    c0.384-0.397,0.372-1.03-0.024-1.413l-1.079-1.042C78.108,38.777,77.476,38.789,77.092,39.186z"/></g></g><text x="0" y="115" fill="#000000" font-size="5px" font-weight="bold" font-family="'Helvetica Neue', Helvetica, Arial-Unicode, Arial, Sans-serif">Created by IconTrack</text><text x="0" y="120" fill="#000000" font-size="5px" font-weight="bold" font-family="'Helvetica Neue', Helvetica, Arial-Unicode, Arial, Sans-serif">from the Noun Project</text></svg>